<?xml version="1.0" encoding="utf-8"?>
<svg viewBox="6.614 157.3177 381.8906 133.2663" width="381.891px" height="133.266px" xmlns="http://www.w3.org/2000/svg" xmlns:bx="https://boxy-svg.com">
  <defs>
    <style bx:fonts="Black Ops One">@import url(https://fonts.googleapis.com/css2?family=Black+Ops+One%3Aital%2Cwght%400%2C400&amp;display=swap);</style>
  </defs>
  <g id="object-2">
    <g id="building_link_x2C__link_x2C__site" transform="matrix(2.835239, 0, 0, 2.835239, 141.603668, 143.141525)" style="">
      <g>
        <g>
          <path d="m21 43h-18.5c-.276 0-.5-.224-.5-.5s.224-.5.5-.5h18.5v-6.5c0-.276.224-.5.5-.5s.5.224.5.5v6.5c0 .551-.449 1-1 1z" style="fill: rgb(224, 224, 224);"/>
        </g>
        <path d="m20.5 5h-18c-.276 0-.5.224-.5.5s.224.5.5.5h18c.276 0 .5.224.5.5v4.5h-18.5c-.276 0-.5.224-.5.5s.224.5.5.5h18.5v5c0 .276.224.5.5.5s.5-.224.5-.5v-5.5-.5-4.5c0-.827-.673-1.5-1.5-1.5z" style="fill: rgb(224, 224, 224);"/>
      </g>
      <g>
        <g>
          <path d="m45.5 43h-18.5c-.551 0-1-.449-1-1v-7c0-.276.224-.5.5-.5s.5.224.5.5v7h18.5c.276 0 .5.224.5.5s-.224.5-.5.5z" style="fill: rgb(224, 224, 224);"/>
        </g>
        <path d="m45.5 11h-18.5v-4.5c0-.276.224-.5.5-.5h18c.276 0 .5-.224.5-.5s-.224-.5-.5-.5h-18c-.827 0-1.5.673-1.5 1.5v4.5.5 5c0 .276.224.5.5.5s.5-.224.5-.5v-4.5h18.5c.276 0 .5-.224.5-.5s-.224-.5-.5-.5z" style="fill: rgb(224, 224, 224);"/>
        <g>
          <g>
            <path d="m40.5 10c-.827 0-1.5-.673-1.5-1.5s.673-1.5 1.5-1.5 1.5.673 1.5 1.5-.673 1.5-1.5 1.5zm0-2c-.276 0-.5.224-.5.5s.224.5.5.5.5-.224.5-.5-.224-.5-.5-.5z" style="fill: rgb(224, 224, 224);"/>
          </g>
          <g>
            <path d="m35.5 10c-.827 0-1.5-.673-1.5-1.5s.673-1.5 1.5-1.5 1.5.673 1.5 1.5-.673 1.5-1.5 1.5zm0-2c-.276 0-.5.224-.5.5s.224.5.5.5.5-.224.5-.5-.224-.5-.5-.5z" style="fill: rgb(224, 224, 224);"/>
          </g>
          <g>
            <path d="m30.5 10c-.827 0-1.5-.673-1.5-1.5s.673-1.5 1.5-1.5 1.5.673 1.5 1.5-.673 1.5-1.5 1.5zm0-2c-.276 0-.5.224-.5.5s.224.5.5.5.5-.224.5-.5-.224-.5-.5-.5z" style="fill: rgb(224, 224, 224);"/>
          </g>
        </g>
      </g>
      <g>
        <g>
          <path d="m33.5 34h-5.938c-.276 0-.5-.224-.5-.5s.224-.5.5-.5h5.938c3.584 0 6.5-2.916 6.5-6.5v-1c0-3.584-2.916-6.5-6.5-6.5h-8c-3.584 0-6.5 2.916-6.5 6.5v1c0 .624.088 1.24.262 1.833.078.265-.074.542-.339.621-.264.079-.543-.074-.621-.339-.2-.685-.302-1.396-.302-2.115v-1c0-4.136 3.364-7.5 7.5-7.5h8c4.136 0 7.5 3.364 7.5 7.5v1c0 4.136-3.364 7.5-7.5 7.5zm-.5-3h-2.458c-.276 0-.5-.224-.5-.5s.224-.5.5-.5h2.458c2.206 0 4-1.794 4-4s-1.794-4-4-4h-7c-2.206 0-4 1.794-4 4 0 .811.241 1.591.696 2.256.156.228.098.539-.13.695-.227.157-.539.098-.695-.13-.57-.833-.871-1.808-.871-2.821 0-2.757 2.243-5 5-5h7c2.757 0 5 2.243 5 5s-2.243 5-5 5z" style="fill: rgb(224, 224, 224);"/>
        </g>
        <g>
          <path d="m22.5 34h-8c-4.136 0-7.5-3.364-7.5-7.5v-1c0-4.136 3.364-7.5 7.5-7.5h5.5c.276 0 .5.224.5.5s-.224.5-.5.5h-5.5c-3.584 0-6.5 2.916-6.5 6.5v1c0 3.584 2.916 6.5 6.5 6.5h8c3.584 0 6.5-2.916 6.5-6.5 0-.006-.039-1.684-.234-2.741-.05-.272.129-.533.401-.583.279-.051.533.13.583.401.209 1.137.249 2.839.25 2.912 0 4.147-3.364 7.511-7.5 7.511zm-.5-3h-7c-2.757 0-5-2.243-5-5s2.243-5 5-5h2.5c.276 0 .5.224.5.5s-.224.5-.5.5h-2.5c-2.206 0-4 1.794-4 4s1.794 4 4 4h7c2.206 0 4-1.794 4-4 0-.735-.201-1.454-.581-2.077-.144-.236-.069-.543.167-.687s.544-.069.687.167c.476.78.727 1.678.727 2.597 0 2.757-2.243 5-5 5z" style="fill: rgb(224, 224, 224);"/>
        </g>
      </g>
    </g>
    <g style="" transform="matrix(0.18967, 0, 0, 0.18967, 183.963028, 187.370117)" id="object-0">
      <path d="M239.681566,40.706757 C211.113272,-0.181889366 154.69089,-12.301439 113.894816,13.6910393 L42.2469062,59.3555354 C22.6760042,71.6680028 9.1958152,91.6538543 5.11196889,114.412133 C1.69420521,133.371174 4.6982178,152.928576 13.6483951,169.987905 C7.51549676,179.291145 3.33259428,189.7413 1.3524912,200.706787 C-2.77083771,223.902098 2.62286977,247.780539 16.3159596,266.951444 C44.8902975,307.843936 101.312954,319.958266 142.10271,293.967161 L213.75062,248.302665 C233.322905,235.991626 246.803553,216.005094 250.885557,193.246067 C254.302867,174.287249 251.30121,154.730228 242.355449,137.668922 C248.486748,128.365895 252.667894,117.916162 254.646134,106.951413 C258.772188,83.7560394 253.378243,59.8765465 239.682665,40.706757" fill="#FF3E00"/>
      <path d="M106.888658,270.841265 C83.7871855,276.848065 59.3915045,267.805346 45.7864111,248.192566 C37.5477583,236.66102 34.3023491,222.296573 36.7830958,208.343155 C37.1989333,206.075414 37.7711933,203.839165 38.4957755,201.650433 L39.845476,197.534835 L43.5173097,200.231763 C51.9971301,206.462491 61.4784803,211.199728 71.5527203,214.239302 L74.2164003,215.047419 L73.9710252,217.705878 C73.6455499,221.487851 74.6696022,225.262925 76.8616703,228.361972 C80.9560313,234.269749 88.3011363,236.995968 95.2584831,235.190159 C96.8160691,234.773852 98.3006859,234.121384 99.6606718,233.25546 L171.331634,187.582718 C174.877468,185.349963 177.321139,181.729229 178.065299,177.605596 C178.808171,173.400048 177.830501,169.072361 175.351884,165.594581 C171.255076,159.685578 163.908134,156.9582 156.947927,158.762547 C155.392392,159.178888 153.90975,159.83088 152.551509,160.695872 L125.202489,178.130144 C120.705281,180.989558 115.797437,183.144784 110.64897,184.521162 C87.547692,190.527609 63.1523949,181.484801 49.5475471,161.872188 C41.3085624,150.340895 38.0631179,135.976391 40.5442317,122.023052 C43.0002744,108.333716 51.1099574,96.3125326 62.8835328,88.9089537 L134.548175,43.2323647 C139.047294,40.3682559 143.958644,38.21032 149.111311,36.8336525 C172.21244,30.8273594 196.607527,39.8700206 210.212459,59.4823515 C218.451112,71.013898 221.696522,85.3783452 219.215775,99.3317627 C218.798144,101.59911 218.225915,103.835236 217.503095,106.024485 L216.153395,110.140083 L212.483484,107.447276 C204.004261,101.212984 194.522,96.4735732 184.44615,93.4336926 L181.78247,92.6253012 L182.027845,89.9668419 C182.350522,86.1852063 181.326723,82.4111645 179.1372,79.3110228 C175.042839,73.4032457 167.697734,70.677026 160.740387,72.4828355 C159.182801,72.8991426 157.698185,73.5516104 156.338199,74.4175344 L84.6672364,120.0922 C81.1218886,122.323199 78.6795938,125.943704 77.9387928,130.066574 C77.1913232,134.271925 78.1673502,138.601163 80.6469865,142.078963 C84.7438467,147.987899 92.0907405,150.71526 99.0509435,148.910997 C100.608143,148.493836 102.092543,147.841423 103.452857,146.976298 L130.798305,129.548621 C135.293566,126.685437 140.201191,124.528302 145.350175,123.152382 C168.451453,117.145935 192.846751,126.188743 206.451598,145.801356 C214.690583,157.332649 217.936027,171.697153 215.454914,185.650492 C212.997261,199.340539 204.888162,211.362752 193.115613,218.769811 L121.450695,264.442553 C116.951576,267.306662 112.040226,269.464598 106.887559,270.841265" fill="#FFFFFF"/>
    </g>
    <text style="fill: rgb(255, 62, 0); font-family: &quot;Black Ops One&quot;; font-size: 22px; white-space: pre;" id="object-1"><tspan x="6.614" y="283.084" style="fill: rgb(152, 152, 152);">@mateothegreat/</tspan><tspan>svelte5-router</tspan></text>
  </g>
</svg>